<?xml version="1.0" encoding="UTF-8" standalone="no"?>
<!-- Created with Inkscape (http://www.inkscape.org/) -->

<svg
   fill="currentColor"
   width="100mm"
   height="100mm"
   viewBox="0 0 100 100"
   version="1.1"
   id="svg5"
   inkscape:version="1.2.1 (9c6d41e410, 2022-07-14)"
   sodipodi:docname="o-azr.svg"
   xmlns:inkscape="http://www.inkscape.org/namespaces/inkscape"
   xmlns:sodipodi="http://sodipodi.sourceforge.net/DTD/sodipodi-0.dtd"
   xmlns="http://www.w3.org/2000/svg"
   xmlns:svg="http://www.w3.org/2000/svg">
  <sodipodi:namedview
     id="namedview7"
     pagecolor="#ffffff"
     bordercolor="#000000"
     borderopacity="0.25"
     inkscape:showpageshadow="2"
     inkscape:pageopacity="0.0"
     inkscape:pagecheckerboard="0"
     inkscape:deskcolor="#d1d1d1"
     inkscape:document-units="mm"
     showgrid="false"
     inkscape:zoom="0.914906"
     inkscape:cx="396.76207"
     inkscape:cy="298.39131"
     inkscape:window-width="3440"
     inkscape:window-height="1369"
     inkscape:window-x="-8"
     inkscape:window-y="-8"
     inkscape:window-maximized="1"
     inkscape:current-layer="layer1" />
  <defs
     id="defs2" />
  <g
     inkscape:label="Layer 1"
     inkscape:groupmode="layer"
     id="layer1">
    <g
       aria-label="AZR"
       id="text113"
       style="font-weight:bold;font-size:67.0277px;font-family:'Indiana Jonas';-inkscape-font-specification:'Indiana Jonas Bold';stroke-width:0.264583">
      <path
         d="m 15.1887,62.766998 q -2.323714,7.298427 -2.683726,10.865819 L 3.0792032,77.003839 Q 3.7010423,68.854475 7.8248169,56.679522 11.948592,44.471839 24.516286,22.118363 l 6.611131,-1.047308 q 3.40375,16.85511 3.40375,29.193706 0,7.62571 -0.916394,15.905988 l -8.44392,3.043738 q 0.425469,-5.956563 0.654568,-10.309436 z m 4.058318,-11.585843 6.905686,-1.865517 q -0.130913,-5.171082 -0.949122,-10.014881 -2.749184,3.731034 -5.956564,11.880398 z"
         id="path273" />
      <path
         d="M 49.782588,60.737839 63.659417,55.599485 61.761171,66.301662 34.989364,75.858347 37.051252,65.450725 57.408298,30.725924 q -5.105626,0.458197 -6.905686,0.687296 -3.338294,0.458197 -8.64029,1.80006 l -2.454628,-9.262129 q 6.054749,-1.930974 11.160375,-2.454628 5.105625,-0.523653 19.767935,-1.407319 l -2.389171,9.785782 q -2.81464,0.229099 -5.236539,0.425469 l 3.600121,1.178221 z"
         id="path275" />
      <path
         d="m 77.274419,47.548306 q 5.727465,-1.112764 8.149364,-3.305565 2.650998,-2.356443 2.847368,-8.705747 0.06546,-2.880096 -2.192801,-3.861947 -2.225529,-1.01458 -5.040169,-1.01458 -0.654567,0 -1.60369,0.09819 l 2.912825,1.472777 q -2.716454,7.069328 -5.072897,15.316877 z m 11.258559,6.02202 q 1.047308,1.898246 1.505505,2.978282 0.850938,1.996431 1.243678,8.83666 l -8.116635,4.778342 q 0,-5.171082 -0.556383,-8.378463 -0.556382,-3.240108 -1.538233,-4.843799 -0.130914,-0.19637 -0.360012,-0.39274 -2.683727,0.720024 -6.152934,1.40732 -1.701875,7.265698 -3.20738,15.284149 l -9.589413,3.469207 q 4.156503,-22.451662 11.618572,-44.837867 -0.850938,0.19637 -1.800061,0.425469 l -2.454627,-8.803932 q 6.054748,-2.258257 12.24041,-2.258257 4.712885,0 7.887537,1.309134 3.207381,1.309135 5.269268,4.385602 2.061887,3.043738 1.898245,8.542105 -0.163641,6.02202 -2.160072,10.800362 -1.996431,4.745613 -5.465638,7.134784 -0.130913,0.09819 -0.261827,0.163642 z"
         id="path277" />
    </g>
  </g>
</svg>
