<?xml version="1.0" encoding="UTF-8" standalone="no"?>
<!-- Created with Inkscape (http://www.inkscape.org/) -->

<svg
   fill="currentColor"
   width="100mm"
   height="100mm"
   viewBox="0 0 100 100"
   version="1.1"
   id="svg284"
   inkscape:version="1.2.1 (9c6d41e410, 2022-07-14)"
   sodipodi:docname="hwk-dsr2.svg"
   xmlns:inkscape="http://www.inkscape.org/namespaces/inkscape"
   xmlns:sodipodi="http://sodipodi.sourceforge.net/DTD/sodipodi-0.dtd"
   xmlns="http://www.w3.org/2000/svg"
   xmlns:svg="http://www.w3.org/2000/svg">
  <sodipodi:namedview
     id="namedview286"
     pagecolor="#ffffff"
     bordercolor="#000000"
     borderopacity="0.25"
     inkscape:showpageshadow="2"
     inkscape:pageopacity="0.0"
     inkscape:pagecheckerboard="0"
     inkscape:deskcolor="#d1d1d1"
     inkscape:document-units="mm"
     showgrid="false"
     inkscape:zoom="0.914906"
     inkscape:cx="255.21747"
     inkscape:cy="362.3323"
     inkscape:window-width="1350"
     inkscape:window-height="1230"
     inkscape:window-x="1907"
     inkscape:window-y="158"
     inkscape:window-maximized="0"
     inkscape:current-layer="layer1" />
  <defs
     id="defs281">
    <rect
       x="5.4650423"
       y="10.930085"
       width="368.34385"
       height="362.87881"
       id="rect342" />
  </defs>
  <g
     inkscape:label="Layer 1"
     inkscape:groupmode="layer"
     id="layer1">
    <g
       aria-label="DSR"
       transform="matrix(0.26458333,0,0,0.26458333,3.1811101,5.4946451)"
       id="text340"
       style="font-weight:bold;font-size:266.667px;font-family:'Indiana Jonas';-inkscape-font-specification:'Indiana Jonas Bold';white-space:pre;shape-inside:url(#rect342)">
      <path
         d="m 72.522217,68.305029 q 35.026083,2.994795 49.218813,19.791691 14.32293,16.66669 13.67189,40.10422 -0.78125,27.6042 -12.76043,59.63548 -11.84898,31.90109 -28.77608,51.69278 -16.796895,19.79169 -40.234424,32.16149 -23.30732,12.50002 -60.807366,17.05732 16.5364785,-89.45324 46.354223,-178.77626 -3.515629,0.91146 -7.291675,2.08333 L 22.131531,77.028998 q 18.880231,-6.119799 32.552123,-7.552093 13.8021,-1.432293 17.838563,-1.171876 z M 36.975299,242.52399 q 35.156293,-19.53127 49.349018,-54.29694 14.322933,-34.76567 14.843773,-53.90632 0,-17.31773 -7.942722,-23.0469 -7.81251,-5.72917 -31.380247,-5.59896 l 13.671892,7.03125 Q 49.996148,176.37808 36.975299,242.52399 Z"
         id="path2529" />
      <path
         d="m 247.91305,92.523808 q -19.79169,2.213545 -45.96359,9.635432 -26.0417,7.29167 -26.0417,24.73961 0,15.62502 23.69794,31.25004 23.69795,15.62502 23.69795,48.17714 0,38.41151 -28.51566,56.38028 -28.38545,18.09898 -65.75529,25.00003 L 111.97539,253.4615 q 15.88543,-3.90625 46.48443,-15.88543 30.599,-12.10939 30.599,-30.20837 0,-16.01565 -24.73962,-30.85941 -24.6094,-14.84377 -24.6094,-45.83339 0,-33.98442 22.26565,-49.349022 22.26565,-15.364602 67.83862,-25.130239 z"
         id="path2531" />
      <path
         d="m 282.67871,172.73224 q 22.78649,-4.42709 32.42192,-13.15106 10.54688,-9.37501 11.32813,-34.63546 0.26042,-11.45834 -8.72396,-15.3646 -8.85418,-4.03646 -20.05211,-4.03646 -2.60417,0 -6.38022,0.39062 l 11.58856,5.85939 q -10.80731,28.12503 -20.18232,60.93757 z m 44.79172,23.95836 q 4.16667,7.55209 5.98959,11.84897 3.38542,7.94272 4.94793,35.1563 l -32.29171,19.01044 q 0,-20.57294 -2.21354,-33.33338 -2.21355,-12.89064 -6.1198,-19.27085 -0.52084,-0.78125 -1.4323,-1.56251 -10.67709,2.86459 -24.47919,5.59897 -6.77085,28.90629 -12.76044,60.80737 l -38.15108,13.8021 q 16.53647,-89.32303 46.22401,-178.38564 -3.38542,0.78125 -7.16147,1.69271 L 250.2568,77.028998 q 24.08857,-8.984386 48.69797,-8.984386 18.75003,0 31.38025,5.208339 12.76043,5.20834 20.96357,17.447938 8.20313,12.109391 7.55209,33.984421 -0.65104,23.95836 -8.59376,42.9688 -7.94272,18.88023 -21.74482,28.38545 -0.52083,0.39063 -1.04167,0.65104 z"
         id="path2533" />
    </g>
  </g>
</svg>
