<?xml version="1.0" encoding="UTF-8" standalone="no"?>
<!-- Created with Inkscape (http://www.inkscape.org/) -->

<svg
    fill="currentColor"
    width="100mm"
    height="100mm"
    viewBox="0 0 100 100"
    version="1.1"
    id="svg5"
    inkscape:version="1.2.2 (732a01da63, 2022-12-09)"
    sodipodi:docname="hwk-dsr.svg"
    xmlns:inkscape="http://www.inkscape.org/namespaces/inkscape"
    xmlns:sodipodi="http://sodipodi.sourceforge.net/DTD/sodipodi-0.dtd"
    xmlns="http://www.w3.org/2000/svg"
    xmlns:svg="http://www.w3.org/2000/svg">
    <sodipodi:namedview
        id="namedview7"
        pagecolor="#ffffff"
        bordercolor="#000000"
        borderopacity="0.25"
        inkscape:showpageshadow="2"
        inkscape:pageopacity="0.0"
        inkscape:pagecheckerboard="0"
        inkscape:deskcolor="#d1d1d1"
        inkscape:document-units="mm"
        showgrid="false"
        inkscape:zoom="0.914906"
        inkscape:cx="396.76207"
        inkscape:cy="298.39131"
        inkscape:window-width="3840"
        inkscape:window-height="2054"
        inkscape:window-x="-11"
        inkscape:window-y="95"
        inkscape:window-maximized="1"
        inkscape:current-layer="layer1" />
    <defs
        id="defs2">
        <rect
            x="4.3720338"
            y="9.8370761"
            width="369.43686"
            height="362.87881"
            id="rect120" />
    </defs>
    <g
        inkscape:label="Ebene 1"
        inkscape:groupmode="layer"
        id="layer1">
        <g
            aria-label="DSR"
            transform="matrix(0.26458333,0,0,0.26458333,4.916261,21.111003)"
            id="text118"
            style="font-size:192px;font-family:'Smack Boom';-inkscape-font-specification:'Smack Boom';white-space:pre;shape-inside:url(#rect120);display:inline">
            <path
                d="m 113.81109,107.37389 q 0,12.672 -2.688,26.496 -2.688,13.632 -8.064,25.152 -5.183996,11.52 -13.055996,19.008 -7.872,7.296 -18.24,7.296 -4.608,0 -9.6,-1.728 -4.8,-1.92 -9.984,-6.144 -1.152,0.96 -3.648,2.88 -2.304,1.92 -5.76,3.84 -3.264,1.728 -7.488,3.264 -4.032,1.344 -8.448,1.344 -4.608,0 -9.408,-1.92 -4.8,-2.112 -9.4080002,-7.296 v -9.024 q 0,-6.336 0.192,-15.936 0.384,-9.792 0.768,-22.464 0.384,-12.672 1.1520002,-27.072 0.96,-14.399999 2.112,-30.143999 1.344,-15.936 3.072,-32.064 1.728,-1.92 4.608,-3.648 2.304,-1.344 5.952,-2.304 3.84,-1.152 8.832,-1.152 6.72,0 16.128,2.88 0,0.384 -0.192,0.768 0,0.384 0,0.96 0,0.576 -0.192,1.536 3.264,-2.112 8.64,-4.032 5.568,-1.92 14.016,-2.112 h 0.768 q 11.52,0 19.2,6.528 7.679996,6.336 12.287996,16.704 4.608,10.176 6.528,23.04 1.92,12.672 1.92,25.343999 z m -56.447996,43.392 q 4.992,0 8.448,-4.032 3.648,-4.224 5.76,-10.752 2.112,-6.72 3.072,-14.784 0.96,-8.064 0.96,-15.936 0,-7.487999 -0.96,-14.591999 -0.768,-7.296 -2.688,-12.864 -1.728,-5.76 -4.416,-9.408 -2.688,-3.648 -6.336,-4.032 h -0.384 l -1.152,-0.192 q -3.648,0 -6.144,1.344 -2.496,1.344 -4.992,4.032 -0.192,5.376 -0.384,11.52 0,6.144 0,13.056 0,11.519999 0.384,24.959999 0.384,13.44 1.536,28.416 1.536,1.536 3.264,2.496 1.92,0.768 4.032,0.768 z"
                id="path291" />
            <path
                d="m 167.95523,149.80589 q 3.264,0 6.144,-1.536 3.072,-1.728 3.072,-4.992 0,-2.688 -2.688,-5.76 -2.496,-3.072 -6.336,-5.952 -3.648,-3.072 -8.064,-5.952 -4.224,-3.072 -7.68,-5.376 -3.456,-2.304 -8.832,-5.568 -5.184,-3.264 -10.176,-8.448 -4.8,-5.184 -8.448,-12.479999 -3.456,-7.488 -3.456,-18.048 0,-10.752 3.84,-18.816 3.84,-8.256 10.368,-13.632 6.72,-5.376 15.552,-8.064 8.832,-2.88 18.624,-2.88 h 0.768 q 12.864,0 20.928,4.224 8.256,4.032 13.056,9.024 5.76,5.76 8.64,13.248 v 2.496 q 0,9.216 -3.072,14.784 -2.88,5.376 -6.72,8.256 -4.224,3.264 -9.792,4.416 -2.496,-6.336 -5.76,-10.752 -3.072,-4.416 -6.528,-7.104 -3.264,-2.88 -6.72,-4.032 -3.264,-1.344 -6.144,-1.344 -4.032,0 -6.528,2.112 -2.496,2.112 -2.496,5.76 0,4.032 4.032,9.6 4.224,5.568 14.592,11.328 11.904,6.719999 18.816,13.055999 6.912,6.144 10.368,12.096 3.648,5.76 4.608,11.328 1.152,5.376 1.344,10.56 v 1.152 q 0,5.376 -1.92,12.672 -1.728,7.104 -6.72,13.824 -4.8,6.528 -13.056,11.328 -8.256,4.8 -21.312,5.568 h -3.264 q -12.48,0 -21.504,-4.224 -9.024,-4.224 -14.976,-9.408 -7.104,-5.952 -11.712,-13.44 0.384,-8.064 2.88,-14.016 2.688,-6.144 5.952,-10.368 3.84,-4.992 8.448,-8.64 9.6,13.632 17.856,18.816 8.256,5.184 14.016,5.184 z"
                id="path293" />
            <path
                d="m 263.76311,146.54189 q 0.384,6.336 0.96,13.056 0.576,6.72 1.536,13.632 -3.648,3.456 -7.872,5.952 -3.456,2.304 -8.256,4.224 -4.608,1.92 -9.984,1.92 -4.608,0 -9.408,-1.92 -4.8,-2.112 -9.408,-7.296 0,-0.576 0,-6.144 0,-5.568 0.192,-14.976 0.384,-9.6 0.768,-22.464 0.384,-12.864 1.152,-27.84 0.96,-15.167999 2.112,-31.679999 1.344,-16.704 3.264,-33.6 1.728,-1.92 4.416,-3.648 2.496,-1.344 6.144,-2.304 3.648,-1.152 8.64,-1.152 6.72,0 16.128,2.88 0,0.384 -0.192,0.96 0,0.384 0,1.152 0,0.576 -0.192,1.536 4.992,-2.304 11.328,-4.224 6.528,-1.92 14.592,-2.304 h 2.496 q 16.32,0 25.728,11.712 9.408,11.712 9.792,32.448 v 0.96 q 0,9.408 -3.072,17.856 -2.88,8.255999 -7.872,14.975999 -4.8,6.72 -11.136,11.712 -6.144,4.8 -12.48,7.296 l 41.088,40.32 q -4.032,5.184 -8.64,8.448 -4.608,3.264 -9.216,4.992 -4.416,1.728 -8.64,2.304 -4.032,0.576 -7.104,0.576 -2.496,0 -4.416,-0.384 -0.96,0 -1.728,-0.192 z m -2.304,-47.423999 q 4.992,4.415999 10.176,4.415999 3.456,0 6.528,-1.92 3.072,-1.919999 5.184,-5.183999 2.304,-3.456 3.648,-8.064 1.344,-4.608 1.344,-9.984 v -0.576 q 0,-3.84 -0.576,-7.104 -0.576,-3.456 -1.728,-5.952 -1.152,-2.688 -3.072,-4.224 -1.728,-1.536 -4.416,-1.536 -4.416,0 -8.448,2.304 -3.84,2.112 -8.064,4.416 -0.576,10.944 -0.576,25.152 z"
                id="path295" />
        </g>
    </g>
</svg>
