<?xml version="1.0" encoding="UTF-8" standalone="no"?>
<!-- Created with Inkscape (http://www.inkscape.org/) -->

<svg
   fill="currentColor"
   width="100mm"
   height="100mm"
   viewBox="0 0 100 100"
   version="1.1"
   id="svg284"
   sodipodi:docname="hwk-ubt.svg"
   inkscape:version="1.2.1 (9c6d41e410, 2022-07-14)"
   xmlns:inkscape="http://www.inkscape.org/namespaces/inkscape"
   xmlns:sodipodi="http://sodipodi.sourceforge.net/DTD/sodipodi-0.dtd"
   xmlns="http://www.w3.org/2000/svg"
   xmlns:svg="http://www.w3.org/2000/svg">
  <sodipodi:namedview
     id="namedview286"
     pagecolor="#ffffff"
     bordercolor="#000000"
     borderopacity="0.25"
     inkscape:showpageshadow="2"
     inkscape:pageopacity="0.0"
     inkscape:pagecheckerboard="0"
     inkscape:deskcolor="#d1d1d1"
     inkscape:document-units="mm"
     showgrid="false"
     inkscape:zoom="0.914906"
     inkscape:cx="255.21747"
     inkscape:cy="362.3323"
     inkscape:window-width="1350"
     inkscape:window-height="1230"
     inkscape:window-x="650"
     inkscape:window-y="118"
     inkscape:window-maximized="0"
     inkscape:current-layer="layer1" />
  <defs
     id="defs281">
    <rect
       x="5.4650423"
       y="10.930085"
       width="368.34385"
       height="362.87881"
       id="rect342" />
  </defs>
  <g
     inkscape:label="Layer 1"
     inkscape:groupmode="layer"
     id="layer1">
    <g
       aria-label="UBT"
       transform="matrix(0.26458333,0,0,0.26458333,1.1567674,5.4946451)"
       id="text340"
       style="font-weight:bold;font-size:266.667px;font-family:'Indiana Jonas';-inkscape-font-specification:'Indiana Jonas Bold';white-space:pre;shape-inside:url(#rect342)">
      <path
         d="M 9.761724,186.01351 Q 16.402357,139.13845 31.246125,77.810249 L 66.793044,73.122743 Q 52.470109,135.49261 45.438851,180.93537 q -7.031259,45.44277 2.864587,50.5209 10.026054,4.94792 20.572941,-6.51043 Q 79.553476,213.4875 85.803483,169.73744 92.1837,125.85718 105.33476,69.476905 l 35.54692,-4.687506 q -12.76044,57.552151 -17.31773,86.979271 -4.42709,29.42712 -13.54169,63.02091 -8.98438,33.59379 -30.208367,45.31256 -21.093776,11.84897 -41.406301,8.33334 -20.182316,-3.51563 -27.734409,-19.53127 -7.5520921,-16.14586 -0.911459,-62.8907 z"
         id="path10563" />
      <path
         d="m 154.81398,110.36237 q -3.51563,0.78125 -7.16146,1.69271 l -9.76564,-35.026082 q 24.08857,-7.81251 55.2084,-8.984386 25.26045,0.130208 35.41671,5.338548 10.28647,5.078131 17.70835,16.276061 7.42189,11.197929 5.07814,36.718799 -0.91146,10.8073 -5.33855,21.4844 -4.29688,10.54689 -13.28127,19.66148 6.38022,8.98439 7.16147,15.3646 0.91146,6.38022 0.65104,13.93231 -0.78125,28.51566 -20.57294,47.65631 -19.66148,19.14065 -111.32826,44.27089 16.53648,-89.32303 46.22401,-178.38564 z m 10.80731,77.73447 q -6.77084,24.21878 -11.71877,48.69798 22.13545,-7.55209 37.76047,-16.27606 15.62502,-8.85418 15.88543,-21.87503 0.26042,-6.64063 -2.34375,-10.80731 -2.60417,-4.29688 -7.29168,-4.29688 z m 13.93231,-81.77093 11.71876,5.85938 q -8.20313,20.44273 -15.10418,41.14588 l 16.53647,-1.04166 q 11.06773,-1.69271 17.70836,-8.07293 6.64063,-6.38022 8.85418,-22.78649 0.39062,-7.94271 -5.72918,-11.84897 -6.1198,-4.03646 -21.22398,-4.03646 -5.85938,0 -12.76043,0.78125 z"
         id="path10565" />
      <path
         d="m 323.04335,106.06549 9.2448,4.03646 -3.38542,14.32294 q -13.54168,56.7709 -29.1667,138.67204 l -38.15109,13.8021 q 16.40627,-86.84906 35.15629,-168.09916 -12.76043,1.95313 -32.42191,6.90105 l -9.76564,-36.849003 q 24.08857,-7.682301 44.4011,-9.765637 20.31252,-2.083336 72.39592,-5.598966 l -6.38022,38.932336 q -25.65107,2.08334 -41.92713,3.64584 z"
         id="path10567" />
    </g>
  </g>
</svg>
